<?xml version="1.0" standalone="no"?>
<!DOCTYPE svg PUBLIC "-//W3C//DTD SVG 20010904//EN"
 "http://www.w3.org/TR/2001/REC-SVG-20010904/DTD/svg10.dtd">
<svg version="1.0" xmlns="http://www.w3.org/2000/svg"
 width="41" height="38" viewBox="0 0 100.000000 100.000000"
 preserveAspectRatio="xMidYMid meet">

<g transform="translate(0.000000,100.000000) scale(0.100000,-0.100000)"
fill="#000000" stroke="none">
<path d="M273 873 l-203 -115 0 -253 0 -253 204 -121 c113 -67 213 -121 224
-121 18 0 381 200 416 229 14 12 16 44 14 260 l-3 246 -205 123 c-112 67 -214
122 -225 121 -11 0 -111 -52 -222 -116z m97 -137 c0 -2 24 -82 54 -177 29 -96
57 -190 61 -209 7 -31 14 -15 77 178 l69 212 34 0 34 0 -60 -172 c-34 -95 -72
-206 -86 -246 l-25 -73 -36 3 -36 3 -78 240 c-42 132 -78 241 -78 243 0 1 16
2 35 2 19 0 35 -2 35 -4z"/>
</g>
</svg>
