<?xml version="1.0" standalone="no"?>
<!DOCTYPE svg PUBLIC "-//W3C//DTD SVG 20010904//EN"
 "http://www.w3.org/TR/2001/REC-SVG-20010904/DTD/svg10.dtd">
<svg version="1.0" xmlns="http://www.w3.org/2000/svg"
 width="96.000000pt" height="96.000000pt" viewBox="0 0 96.000000 96.000000"
 preserveAspectRatio="xMidYMid meet">

<g transform="translate(0.000000,96.000000) scale(0.100000,-0.100000)"
fill="#000000" stroke="none">
<path d="M0 480 l0 -480 226 0 c127 0 223 4 220 9 -3 5 -88 55 -188 112 -101
57 -190 111 -198 119 -13 13 -14 49 -10 244 l5 229 125 69 c69 38 161 89 205
113 l80 43 205 -117 205 -118 0 -238 0 -237 -188 -103 c-104 -57 -194 -108
-200 -114 -8 -8 54 -11 231 -11 l242 0 0 480 0 480 -480 0 -480 0 0 -480z"/>
<path d="M370 833 c-47 -25 -129 -70 -183 -100 l-97 -54 2 -206 3 -205 180
-104 c99 -57 183 -104 188 -104 4 0 91 45 192 101 l185 101 -2 205 -3 206
-180 103 c-99 57 -184 103 -190 103 -5 0 -48 -20 -95 -46z m16 -285 c21 -62
46 -135 55 -163 11 -32 19 -45 23 -35 3 8 28 80 54 160 l49 145 37 3 c45 4 50
24 -46 -220 l-70 -178 -33 0 c-22 0 -35 6 -40 17 -20 53 -91 238 -116 306
l-28 77 38 0 39 0 38 -112z"/>
</g>
</svg>
